<svg width="37" height="54" viewBox="0 0 37 54" fill="none" xmlns="http://www.w3.org/2000/svg">
<path d="M31.6763 1.48699C31.393 0.708522 30.5322 0.307142 29.7537 0.59048L17.0679 5.20775C16.2894 5.49109 15.888 6.35185 16.1714 7.13032C16.4547 7.90879 17.3155 8.31017 18.0939 8.02683L29.3702 3.92259L33.4745 15.1989C33.7578 15.9774 34.6186 16.3787 35.3971 16.0954C36.1755 15.8121 36.5769 14.9513 36.2936 14.1728L31.6763 1.48699ZM21.0608 25.2916L31.6262 2.63395L28.9073 1.36609L18.3418 24.0238L21.0608 25.2916Z" fill="white"/>
<path d="M5.61322 52.3599C5.89655 53.1384 6.75732 53.5398 7.53578 53.2564L20.2216 48.6392C21.0001 48.3558 21.4015 47.4951 21.1181 46.7166C20.8348 45.9381 19.974 45.5368 19.1956 45.8201L7.91926 49.9243L3.81502 38.648C3.53168 37.8696 2.67092 37.4682 1.89245 37.7515C1.11399 38.0349 0.712604 38.8956 0.995943 39.6741L5.61322 52.3599ZM16.2287 28.5553L5.66329 51.213L8.38222 52.4808L18.9477 29.8231L16.2287 28.5553Z" fill="white"/>
</svg>
