<svg width="31" height="52" viewBox="0 0 31 52" fill="none" xmlns="http://www.w3.org/2000/svg">
<path d="M15.3653 24.3233C15.6487 25.1018 16.5094 25.5031 17.2879 25.2198L29.9738 20.6025C30.7522 20.3192 31.1536 19.4584 30.8703 18.68C30.5869 17.9015 29.7262 17.5001 28.9477 17.7834L17.6714 21.8877L13.5671 10.6114C13.2838 9.83291 12.423 9.43152 11.6446 9.71486C10.8661 9.9982 10.4647 10.859 10.7481 11.6374L15.3653 24.3233ZM25.9809 0.51863L15.4154 23.1763L18.1343 24.4442L28.6998 1.78648L25.9809 0.51863Z" fill="black"/>
<path d="M16.4795 28.0123C16.1962 27.2339 15.3354 26.8325 14.5569 27.1158L1.87109 31.7331C1.09263 32.0165 0.691245 32.8772 0.974583 33.6557C1.25792 34.4341 2.11869 34.8355 2.89715 34.5522L14.1735 30.4479L18.2777 41.7243C18.561 42.5027 19.4218 42.9041 20.2003 42.6208C20.9787 42.3374 21.3801 41.4767 21.0968 40.6982L16.4795 28.0123ZM5.86398 51.817L16.4294 29.1593L13.7105 27.8915L3.14505 50.5491L5.86398 51.817Z" fill="black"/>
</svg>
